<svg xmlns="http://www.w3.org/2000/svg" xmlns:xlink="http://www.w3.org/1999/xlink" width="100%" height="100%" viewBox="0 0 100 100" version="1.1" xml:space="preserve" style="fill-rule:evenodd;clip-rule:evenodd;stroke-linejoin:round;stroke-miterlimit:1.41421;">
    <g transform="matrix(1.53251,0,0,1.53251,-109.107,-343.002)">
        <path d="M104.249,223.818C104.889,223.829 105.528,223.863 106.165,223.932C107.638,224.091 109.093,224.415 110.495,224.897C112.648,225.637 114.67,226.752 116.45,228.173C118.451,229.771 120.141,231.753 121.401,233.984C122.038,235.114 122.565,236.306 122.971,237.539C123.165,238.128 123.327,238.725 123.468,239.329L123.471,239.342C123.628,239.333 123.784,239.328 123.941,239.324C124.066,239.323 124.19,239.323 124.315,239.323C124.884,239.334 125.451,239.377 126.013,239.463C127.204,239.645 128.366,240.005 129.45,240.528C131.436,241.486 133.147,242.985 134.359,244.826C135.096,245.945 135.646,247.184 135.98,248.481C136.301,249.728 136.422,251.026 136.34,252.311C136.263,253.526 136.004,254.728 135.571,255.866C135.081,257.153 134.371,258.355 133.481,259.407C132.503,260.564 131.309,261.537 129.977,262.261C128.61,263.004 127.102,263.48 125.556,263.657C123.905,263.846 122.217,263.698 120.626,263.217C119.277,262.809 118.002,262.165 116.872,261.323C116.377,260.954 115.913,260.547 115.477,260.109C115.331,260.212 115.331,260.211 115.184,260.312C114.681,260.649 114.167,260.968 113.637,261.261C112.431,261.927 111.157,262.467 109.84,262.869C106.159,263.994 102.162,264.024 98.464,262.955C97.342,262.631 96.249,262.207 95.201,261.691C94.744,261.466 94.297,261.221 93.858,260.964C93.76,261.036 93.661,261.106 93.563,261.176C93.006,261.562 92.429,261.913 91.825,262.218C90.438,262.92 88.936,263.389 87.397,263.602C85.511,263.864 83.573,263.743 81.735,263.245C80.017,262.78 78.392,261.986 76.967,260.92C75.56,259.867 74.351,258.553 73.42,257.063C72.595,255.742 71.991,254.285 71.64,252.768C71.316,251.367 71.209,249.918 71.318,248.485C71.421,247.137 71.718,245.804 72.198,244.54C72.868,242.782 73.892,241.162 75.19,239.801C76.526,238.4 78.146,237.277 79.929,236.522C81.168,235.998 82.482,235.653 83.819,235.5C84.503,235.421 85.192,235.396 85.881,235.414C85.96,235.24 86.045,235.067 86.13,234.895C86.359,234.441 86.601,233.993 86.862,233.556C87.414,232.632 88.041,231.753 88.734,230.93C90.036,229.384 91.572,228.036 93.276,226.947C94.786,225.982 96.426,225.222 98.138,224.695C99.33,224.329 100.555,224.075 101.794,223.938C102.395,223.872 102.997,223.836 103.6,223.82C103.817,223.817 104.033,223.817 104.249,223.818ZM103.852,228.656C103.342,228.664 102.833,228.691 102.326,228.748C101.341,228.857 100.366,229.063 99.421,229.364C97.901,229.848 96.46,230.576 95.167,231.51C93.729,232.549 92.476,233.84 91.481,235.308C90.994,236.026 90.569,236.786 90.213,237.577C90.031,237.979 89.87,238.39 89.722,238.806L89.631,239.028C89.593,239.099 89.559,239.172 89.517,239.241C89.435,239.379 89.338,239.508 89.23,239.627C88.794,240.105 88.172,240.392 87.525,240.415C87.227,240.425 86.936,240.362 86.643,240.323C86.511,240.306 86.38,240.292 86.248,240.28C85.779,240.243 85.31,240.235 84.841,240.265C83.915,240.324 82.998,240.521 82.131,240.851C81.077,241.252 80.1,241.847 79.257,242.595C78.417,243.34 77.712,244.237 77.187,245.23C76.761,246.038 76.455,246.908 76.283,247.806C76.104,248.739 76.069,249.7 76.177,250.645C76.277,251.523 76.504,252.385 76.848,253.199C77.624,255.032 78.993,256.593 80.706,257.606C81.723,258.208 82.852,258.612 84.02,258.79C85.295,258.985 86.611,258.916 87.857,258.582C88.868,258.312 89.83,257.868 90.693,257.278C91.091,257.006 91.464,256.703 91.817,256.376L91.897,256.299L91.987,256.212L92.156,256.063C92.216,256.019 92.275,255.971 92.337,255.93C92.463,255.847 92.596,255.776 92.734,255.718C93.291,255.483 93.927,255.467 94.495,255.672C94.637,255.723 94.773,255.788 94.902,255.864C95.031,255.94 95.102,255.996 95.218,256.079C95.322,256.154 95.351,256.173 95.456,256.246C95.576,256.328 95.697,256.409 95.819,256.488C96.187,256.724 96.563,256.946 96.949,257.151C97.815,257.61 98.726,257.984 99.665,258.265C101.883,258.929 104.253,259.072 106.536,258.687C107.69,258.493 108.821,258.163 109.899,257.706C111.01,257.235 112.063,256.629 113.03,255.908C113.446,255.598 113.843,255.265 114.228,254.916L114.409,254.767C114.474,254.724 114.536,254.677 114.603,254.637C114.803,254.516 115.021,254.425 115.248,254.366C116.011,254.169 116.842,254.364 117.437,254.88C117.555,254.982 117.663,255.096 117.759,255.219C117.882,255.376 117.982,255.55 118.094,255.714C118.16,255.808 118.228,255.901 118.297,255.993C118.532,256.296 118.785,256.584 119.062,256.849C119.756,257.514 120.579,258.043 121.474,258.394C122.446,258.774 123.496,258.941 124.538,258.888C125.511,258.839 126.471,258.595 127.349,258.172C128.39,257.671 129.306,256.922 130.009,256.006C130.516,255.345 130.91,254.598 131.168,253.806C131.406,253.072 131.526,252.301 131.526,251.53C131.526,250.818 131.425,250.108 131.222,249.426C130.983,248.626 130.607,247.869 130.115,247.195C129.575,246.455 128.897,245.816 128.126,245.321C127.343,244.82 126.467,244.468 125.554,244.293C124.712,244.132 123.842,244.118 122.996,244.252C122.697,244.3 122.405,244.368 122.114,244.448L121.886,244.499C121.808,244.509 121.731,244.523 121.654,244.528C121.42,244.546 121.185,244.53 120.956,244.48C120.186,244.313 119.532,243.765 119.232,243.036C119.173,242.891 119.128,242.741 119.097,242.588C119.058,242.39 119.046,242.185 119.023,241.984C119.001,241.806 119.001,241.806 118.977,241.628C118.907,241.159 118.821,240.694 118.71,240.233C118.479,239.271 118.153,238.334 117.737,237.437C116.895,235.619 115.689,233.974 114.211,232.622C112.772,231.304 111.079,230.267 109.249,229.589C108.201,229.202 107.111,228.932 106.003,228.786C105.463,228.715 104.92,228.676 104.375,228.66C104.201,228.656 104.027,228.655 103.852,228.656Z" style="fill:white;fill-rule:nonzero;"/>
        <g transform="matrix(1,0,0,1,4.07066,-0.461981)">
            <path d="M85.591,266.774C85.91,266.794 86.218,266.863 86.508,266.999C87.139,267.293 87.621,267.859 87.812,268.529C87.875,268.75 87.906,268.981 87.904,269.211C87.902,269.531 87.832,269.84 87.713,270.135C86.53,272.793 85.254,275.408 84.023,278.044C83.973,278.148 83.919,278.249 83.856,278.346C83.698,278.587 83.497,278.799 83.265,278.97C83.079,279.107 82.874,279.216 82.658,279.295C82.031,279.523 81.324,279.479 80.73,279.176C80.5,279.058 80.288,278.903 80.106,278.718C79.904,278.513 79.74,278.271 79.622,278.008C79.493,277.719 79.421,277.405 79.413,277.088C79.406,276.858 79.433,276.627 79.492,276.404C79.521,276.292 79.56,276.184 79.604,276.077C80.787,273.419 82.063,270.804 83.293,268.168C83.369,268.012 83.455,267.864 83.56,267.725C83.858,267.335 84.273,267.041 84.74,266.889C84.933,266.827 85.131,266.793 85.332,266.777C85.419,266.773 85.505,266.772 85.591,266.774Z" style="fill:white;fill-rule:nonzero;"/>
        </g>
        <g transform="matrix(1,0,0,1,12.022,9.63033)">
            <path d="M85.591,266.774C85.91,266.794 86.218,266.863 86.508,266.999C87.139,267.293 87.621,267.859 87.812,268.529C87.875,268.75 87.906,268.981 87.904,269.211C87.902,269.531 87.832,269.84 87.713,270.135C86.53,272.793 85.254,275.408 84.023,278.044C83.973,278.148 83.919,278.249 83.856,278.346C83.698,278.587 83.497,278.799 83.265,278.97C83.079,279.107 82.874,279.216 82.658,279.295C82.031,279.523 81.324,279.479 80.73,279.176C80.5,279.058 80.288,278.903 80.106,278.718C79.904,278.513 79.74,278.271 79.622,278.008C79.493,277.719 79.421,277.405 79.413,277.088C79.406,276.858 79.433,276.627 79.492,276.404C79.521,276.292 79.56,276.184 79.604,276.077C80.787,273.419 82.063,270.804 83.293,268.168C83.369,268.012 83.455,267.864 83.56,267.725C83.858,267.335 84.273,267.041 84.74,266.889C84.933,266.827 85.131,266.793 85.332,266.777C85.419,266.773 85.505,266.772 85.591,266.774Z" style="fill:white;fill-rule:nonzero;"/>
        </g>
        <g transform="matrix(1,0,0,1,30.1185,-0.461981)">
            <path d="M85.591,266.774C85.91,266.794 86.218,266.863 86.508,266.999C87.139,267.293 87.621,267.859 87.812,268.529C87.875,268.75 87.906,268.981 87.904,269.211C87.902,269.531 87.832,269.84 87.713,270.135C86.53,272.793 85.254,275.408 84.023,278.044C83.973,278.148 83.919,278.249 83.856,278.346C83.698,278.587 83.497,278.799 83.265,278.97C83.079,279.107 82.874,279.216 82.658,279.295C82.031,279.523 81.324,279.479 80.73,279.176C80.5,279.058 80.288,278.903 80.106,278.718C79.904,278.513 79.74,278.271 79.622,278.008C79.493,277.719 79.421,277.405 79.413,277.088C79.406,276.858 79.433,276.627 79.492,276.404C79.521,276.292 79.56,276.184 79.604,276.077C80.787,273.419 82.063,270.804 83.293,268.168C83.369,268.012 83.455,267.864 83.56,267.725C83.858,267.335 84.273,267.041 84.74,266.889C84.933,266.827 85.131,266.793 85.332,266.777C85.419,266.773 85.505,266.772 85.591,266.774Z" style="fill:white;fill-rule:nonzero;"/>
        </g>
    </g>
</svg>