<svg width="100%" height="100%" viewBox="0 0 100 100" version="1.1" xmlns="http://www.w3.org/2000/svg" xmlns:xlink="http://www.w3.org/1999/xlink" xml:space="preserve" style="fill-rule:evenodd;clip-rule:evenodd;stroke-linejoin:round;stroke-miterlimit:1.41421;">
    <g transform="matrix(2.60244,0,0,2.60244,-262.674,-428.169)">
        <path d="M121.233,164.526C122.013,164.538 122.79,164.588 123.563,164.69C123.691,164.707 123.817,164.725 123.944,164.744C124.051,164.761 124.184,164.78 124.289,164.806C124.454,164.845 124.613,164.905 124.763,164.982C124.963,165.086 125.146,165.222 125.303,165.384C125.698,165.79 125.915,166.351 125.896,166.918C125.889,167.143 125.844,167.367 125.766,167.578C125.668,167.842 125.517,168.086 125.323,168.29C125.209,168.41 125.081,168.517 124.96,168.629C124.846,168.737 124.846,168.737 124.733,168.846C124.4,169.178 124.082,169.523 123.786,169.888C123.133,170.693 122.583,171.582 122.158,172.528C121.63,173.701 121.299,174.96 121.183,176.242C121.078,177.405 121.147,178.584 121.391,179.727C121.609,180.746 121.965,181.733 122.444,182.658C123.453,184.606 125,186.254 126.852,187.425C128.028,188.168 129.324,188.718 130.674,189.051C131.987,189.376 133.349,189.496 134.698,189.414C135.149,189.386 135.597,189.334 136.043,189.264L136.206,189.244C136.352,189.239 136.389,189.233 136.535,189.245C136.754,189.262 136.969,189.314 137.172,189.397C137.786,189.651 138.253,190.195 138.41,190.841C138.462,191.054 138.481,191.275 138.464,191.494C138.448,191.712 138.397,191.928 138.315,192.131C138.254,192.281 138.175,192.425 138.101,192.568C137.974,192.813 137.842,193.054 137.705,193.293C136.805,194.859 135.683,196.297 134.384,197.552C133.084,198.809 131.608,199.882 130.01,200.728C128.581,201.484 127.057,202.059 125.484,202.432C122.416,203.161 119.171,203.121 116.122,202.316C114.572,201.906 113.074,201.3 111.675,200.517C110.062,199.615 108.581,198.48 107.29,197.158C105.944,195.779 104.806,194.199 103.927,192.484C103.211,191.087 102.668,189.603 102.315,188.074C101.667,185.272 101.658,182.325 102.288,179.519C102.641,177.949 103.193,176.424 103.927,174.992C104.841,173.209 106.035,171.572 107.452,170.155C109.089,168.518 111.02,167.179 113.13,166.224C114.677,165.524 116.317,165.032 117.994,164.765C118.837,164.631 119.688,164.556 120.541,164.531C120.772,164.526 121.002,164.525 121.233,164.526ZM119.31,168.823C118.443,168.925 117.587,169.097 116.75,169.347C115.235,169.797 113.795,170.491 112.497,171.392C110.715,172.627 109.207,174.248 108.103,176.114C107.404,177.294 106.869,178.571 106.519,179.898C105.77,182.731 105.872,185.775 106.811,188.551C107.24,189.815 107.839,191.021 108.587,192.127C109.496,193.473 110.624,194.67 111.913,195.659C113.31,196.73 114.893,197.553 116.573,198.076C118.409,198.648 120.352,198.857 122.268,198.701C124.11,198.551 125.921,198.058 127.583,197.25C129.404,196.365 131.047,195.107 132.372,193.575C132.229,193.564 132.088,193.548 131.945,193.533C131.316,193.46 130.691,193.361 130.072,193.224C128.798,192.942 127.557,192.515 126.379,191.953C124.685,191.145 123.126,190.057 121.787,188.742C119.979,186.964 118.583,184.774 117.769,182.37C117.33,181.072 117.06,179.717 116.97,178.349C116.87,176.836 116.986,175.309 117.319,173.829C117.582,172.653 117.982,171.509 118.505,170.423C118.771,169.87 119.071,169.334 119.397,168.814C119.368,168.817 119.339,168.82 119.31,168.823Z" style="fill:white;fill-rule:nonzero;"/>
    </g>
</svg>